<?xml version="1.0" encoding="utf-8"?>
<!-- Generator: Adobe Illustrator 27.2.0, SVG Export Plug-In . SVG Version: 6.00 Build 0)  -->
<svg version="1.1" id="Layer_1" xmlns="http://www.w3.org/2000/svg" xmlns:xlink="http://www.w3.org/1999/xlink" x="0px" y="0px"
	 viewBox="0 0 216 216" style="enable-background:new 0 0 216 216;" xml:space="preserve">
<style type="text/css">
	.st0{fill:#0054A6;}
	.st1{fill:none;stroke:#2E3192;stroke-width:2;stroke-miterlimit:10;}
	.st2{fill:url(#SVGID_1_);}
	.st3{opacity:0.6;}
	.st4{fill:#939598;}
	.st5{fill:none;stroke:#939598;stroke-width:0.25;stroke-miterlimit:10;}
	.st6{fill:#191547;}
	.st7{fill:#FDE1CB;}
	.st8{fill:none;stroke:#2E3192;stroke-width:0.25;stroke-miterlimit:10;}
</style>
<g id="XMLID_00000036235014946913005670000002681909313698200983_">
	<g>
		<circle class="st0" cx="108" cy="108" r="106.99"/>
	</g>
	<g>
		<circle class="st1" cx="108" cy="108" r="106.99"/>
	</g>
</g>
<g id="XMLID_00000070118879731680270140000005268223886758153652_">
	<g>
		<radialGradient id="SVGID_1_" cx="107.9981" cy="107.9972" r="88.2" gradientUnits="userSpaceOnUse">
			<stop  offset="0" style="stop-color:#8ED8F8"/>
			<stop  offset="1" style="stop-color:#00AEEF"/>
		</radialGradient>
		<circle class="st2" cx="108" cy="108" r="88.2"/>
	</g>
	<g>
		<circle class="st1" cx="108" cy="108" r="88.2"/>
	</g>
</g>
<g class="st3">
	<g id="XMLID_00000088826845430804115920000009514604174556547748_">
		<g>
			<path class="st4" d="M138.43,55.62c-0.23-1.25,0.72-2.79,0.45-4.16c-0.02-0.44,0.07-0.87,0.6-0.94c1.77,0.05,1.68,5.68,0.79,6.67
				c-0.13-1.69-0.05-3.4-0.54-5.09C139.55,53.36,139.28,54.58,138.43,55.62z"/>
			<path class="st4" d="M134.6,66.65c-0.45,0.46-1.71,0.28-2.2,0.33c-0.58,0.13-4.7-0.25-3.05-0.68c1.56-0.32,3.15-0.33,4.73-0.07
				C134.28,66.27,134.67,66.34,134.6,66.65z"/>
			<path class="st4" d="M131.39,48.68c1.23,0.53,1.67,1.52,1.85,2.67C132.63,50.46,132.01,49.57,131.39,48.68z"/>
			<path class="st4" d="M134.56,89.8c-3.66,2.8-3.64,8.5-2.62,12.55c0.4,1.01,1.75,1.2,2.7,0.42c2.34-1.8,1.87-4.77,3.37-7.05
				c1.82-1.49,3.83-2.79,5.04-4.83c0.17-0.24,0.39-0.04,0.36,0.14c-0.25,2.22-2.09,3.87-4.19,4.76c-0.8,0.28-0.63,0.94-0.74,1.45
				c-0.35,1.66-0.73,3.3-1.59,4.81c-2.33,3.92-7.07,2.75-6.65-2.12c-0.54-2.59,0.58-11.35,4.44-10.67
				C134.89,89.48,134.77,89.67,134.56,89.8z"/>
			<path class="st4" d="M119.3,99.74c5.24,0.28,12.08,6.85,11.89,11.43C128.37,105.87,124.77,102.32,119.3,99.74z"/>
			<path class="st4" d="M130.63,48.87c0.56,0.53,1.02,1.11,1.13,1.9C131.15,50.26,130.78,49.63,130.63,48.87z"/>
			<path class="st4" d="M129.87,50.63c0.1,0.16-0.05,0.24-0.06,0.07C129.82,50.68,129.85,50.65,129.87,50.63z"/>
			<path class="st4" d="M134.07,62.62c-1.54-0.47-3.08-0.63-4.68-0.21c-0.24,0.06-0.71,0.21-0.84-0.15c-0.02-0.88,2.25-1.13,3-1.13
				c1.09,0.04,2.98,0.28,3.16,1.52C134.54,62.95,134.28,62.68,134.07,62.62z"/>
			<path class="st4" d="M128.37,48.56c1.21-0.16,3.15,2.02,3.1,3.52c-0.67-0.81-1.26-1.71-2.09-2.4
				C129.35,49.08,128.51,49.07,128.37,48.56z"/>
			<path class="st4" d="M129.8,50.7c-0.74-0.28-1.09-0.92-1.71-1.36c0.58-0.25,0.81,0.33,1.29,0.34c-0.08,0.44,0.47,0.63,0.48,0.95
				C129.85,50.65,129.82,50.68,129.8,50.7z"/>
			<path class="st4" d="M128.68,67.12c-2.45-1.5,2.45-2.12,3.45-2.12c1.06,0.12,2.15,0.04,3.06,0.68c0.86,0.5,0.76,1.78-0.27,1.97
				C132.78,68.09,130.67,68.24,128.68,67.12z M134.6,66.65c0.06-0.31-0.32-0.38-0.52-0.42c-1.58-0.26-3.16-0.25-4.73,0.07
				c-1.65,0.43,2.46,0.81,3.05,0.68C132.89,66.94,134.15,67.11,134.6,66.65z"/>
			<path class="st4" d="M122.88,66.79c-1.4,1.25-1.47,1.15-2.29-0.46C121.4,66.49,122.11,66.63,122.88,66.79z"/>
			<path class="st4" d="M120.59,66.33c0.82,1.61,0.89,1.72,2.29,0.46C122.11,66.63,121.4,66.49,120.59,66.33z M123.48,65.98
				c0.42,0.13,0.77,0.42,0.75,0.82c0.11,1.1-2.6,1.05-2.15,1.96c0.48,0.99,0.19,1.37,1.47,1.24c1.51-0.22,1.86,0.73,0.25,0.89
				c-0.55,0.07-3.41,0.29-2.43-0.8c-0.15-0.7-0.16-1.62-0.78-2.22C117.82,64.93,121.46,65.3,123.48,65.98z"/>
			<path class="st4" d="M119.17,128.28l-0.2,0.12c-2.72,1.89-6.31,1.92-9.55,1.78C112.46,129.59,116.06,129.18,119.17,128.28z"/>
			<path class="st4" d="M114.66,130.89c1.28-0.5,2.55-0.99,3.83-1.48c-1.11,0.84-2.38,1.33-3.75,1.64
				C114.72,131,114.69,130.95,114.66,130.89z"/>
			<path class="st4" d="M118.1,60.81c-0.76,0.2-1.49-1.12-2.54-0.86c-0.36,0.1-0.34-0.76-0.05-0.86c0.22-0.12,0.45-0.23,0.68-0.18
				c0.79,0,1.7,0.55,2.03,1.15C118.39,60.37,118.29,60.63,118.1,60.81z"/>
			<path class="st4" d="M114.78,48.13c1.32,0.27,3.32,1.23,3.22,2.62c-0.25,0.23-0.36-0.09-0.48-0.2c-0.77-0.66-1.49-1.46-2.63-1.57
				c0.41,0.57,0.78,1.09,1.2,1.66C114.65,50.73,112.98,48.24,114.78,48.13z"/>
			<path class="st4" d="M114.96,127.62c-1.7,1.03-3.58,0.71-5.42,0.69C111.34,127.95,113.19,127.96,114.96,127.62z"/>
			<path class="st4" d="M116.68,64.99c-0.58,0.22-4.08-1.67-2.13-1.78C115.46,63.24,117.04,64.1,116.68,64.99z"/>
			<path class="st4" d="M113.99,129.01c-2.35,0.56-4.74,0.47-7.32,0.24C109.23,128.8,111.62,129.23,113.99,129.01z"/>
			<path class="st4" d="M114.56,63.21c-1.95,0.11,1.55,2,2.13,1.78C117.04,64.1,115.46,63.24,114.56,63.21z M117.74,64.93
				c0.07,2.26-3.82,0.24-4.45-0.76c-0.89-0.97,0.06-2.04,1.24-1.83C115.93,62.58,117.42,63.58,117.74,64.93z"/>
			<path class="st4" d="M100.82,87.79c0.66-2.61,2.85-3.21,5.23-4.14c-1.91,3.81-2.83,7.69-3.64,11.76
				c-0.03,0.17-0.07,0.32-0.23,0.36c-1.34,0.42-2.73,1.31-4.2,0.85C96.85,95.55,100.05,89.36,100.82,87.79z"/>
			<path class="st4" d="M99.84,115.49c0.05,1.52-0.35,2.79-0.62,4.08C99.1,118.24,99.05,116.9,99.84,115.49z"/>
			<path class="st4" d="M98.75,113.34c-0.21,1.57-0.42,3.12-0.63,4.69C97.71,116.41,97.76,114.84,98.75,113.34z"/>
			<path class="st4" d="M97.85,111.46c-0.26,1.69-0.53,3.31-0.78,4.96C96.42,115.4,96.92,112.19,97.85,111.46z"/>
			<path class="st4" d="M99.01,106.1c-1.68,3.31-3.09,7-2.44,10.69c-1.66-3.35-0.05-8.07,2.35-10.79
				C98.95,106.03,98.98,106.06,99.01,106.1z"/>
			<path class="st4" d="M115.51,59.09c-0.28,0.11-0.31,0.96,0.05,0.86c1.05-0.26,1.77,1.07,2.54,0.86c0.19-0.19,0.29-0.44,0.12-0.76
				c-0.33-0.6-1.24-1.15-2.03-1.15C115.96,58.86,115.73,58.97,115.51,59.09z M131.39,48.68c0.62,0.89,1.24,1.78,1.85,2.67
				C133.07,50.2,132.62,49.2,131.39,48.68z M118.49,129.41c-1.27,0.49-2.55,0.98-3.83,1.48c0.03,0.05,0.05,0.11,0.08,0.16
				C116.11,130.75,117.38,130.25,118.49,129.41z M123.48,65.98c-2.03-0.68-5.66-1.04-2.88,1.89c0.62,0.6,0.63,1.51,0.78,2.22
				c-0.98,1.09,1.88,0.87,2.43,0.8c1.62-0.16,1.26-1.11-0.25-0.89c-1.28,0.13-0.99-0.25-1.47-1.24c-0.45-0.91,2.25-0.85,2.15-1.96
				C124.26,66.39,123.9,66.11,123.48,65.98z M99.84,115.49c-0.78,1.41-0.74,2.75-0.62,4.08C99.49,118.28,99.89,117.01,99.84,115.49z
				 M98.12,118.03c0.21-1.57,0.42-3.12,0.63-4.69C97.76,114.84,97.71,116.41,98.12,118.03z M109.42,130.17
				c3.24,0.14,6.83,0.11,9.55-1.78l0.2-0.12C116.06,129.18,112.46,129.59,109.42,130.17z M114.52,62.34
				c-1.17-0.2-2.13,0.86-1.24,1.83c0.64,1,4.53,3.02,4.45,0.76C117.42,63.58,115.93,62.58,114.52,62.34z M106.67,129.25
				c2.58,0.23,4.96,0.32,7.32-0.24C111.62,129.23,109.23,128.8,106.67,129.25z M97.07,116.41c0.25-1.65,0.52-3.27,0.78-4.96
				C96.92,112.19,96.42,115.4,97.07,116.41z M96.57,116.79c-0.65-3.68,0.75-7.38,2.44-10.69c-0.03-0.04-0.06-0.07-0.09-0.11
				C96.52,108.72,94.91,113.43,96.57,116.79z M131.76,50.77c-0.11-0.78-0.56-1.37-1.13-1.9C130.78,49.63,131.15,50.26,131.76,50.77z
				 M129.8,50.7c0.02,0.17,0.16,0.09,0.06-0.07c-0.01-0.32-0.56-0.52-0.48-0.95c0.83,0.69,1.42,1.59,2.09,2.4
				c0.05-1.5-1.89-3.68-3.1-3.52c0.14,0.51,0.97,0.52,1.01,1.12c-0.48-0.01-0.71-0.59-1.29-0.34
				C128.71,49.79,129.07,50.43,129.8,50.7z M114.78,48.13c-1.8,0.11-0.14,2.6,1.31,2.52c-0.42-0.58-0.79-1.09-1.2-1.66
				c1.14,0.11,1.85,0.91,2.63,1.57c0.12,0.11,0.23,0.43,0.48,0.2C118.1,49.36,116.1,48.4,114.78,48.13z M109.55,128.3
				c1.84,0.03,3.72,0.35,5.42-0.69C113.19,127.96,111.34,127.95,109.55,128.3z M136.48,54.07c1.93-0.09,1.9-4.1,2.5-5.48
				c1.35-1.95,2.92,2.3,3.16,3.21c0.75,2.33,0.74,4.7,0.28,7.1c1.05-0.62,1.21-1.64,1.64-2.63c1.59,3.63,0.92,7.36,0.38,11.07
				c0.62,4.7,4.47,8.28,6.99,12.12c3.25,4.44,5.76,9.33,6.64,14.65c4.52,19.07-1.63,40.13-21.14,47.77
				c-4.54,2.17-9.06,4.4-13.59,6.59c-4.35,2.57-5.55,7.88-10.47,9.85c-7.2,2.08-1.68-5.1-0.17-7.76c0.48-1.09,1.82-1.68,1.84-2.99
				c-0.61-5.3,0.35-10.47,4.6-14.34c0.39-0.37,0.06-0.73-0.44-0.47c-2.55,1.2-3.9,3.72-4.94,6.04c-0.37,1.18-0.36,1.18-1.48,0.52
				c-8.72-4.8-16.08-11.09-20.54-19.96c-0.33-0.47-1.04-0.4-0.82-1.15c-1.52,0.88-2.13,2.28-3.21,3.5
				c-0.22,0.27-0.44,0.45-0.92,0.31c-1.65-0.8-19.96,0.82-15.09-3.19c3-1.6,6.15-0.92,9.32-0.22c0.32,0.05,0.45-0.12,0.56-0.36
				c1.85-4.38,4.7-9.49,9.76-10.72c1.51-0.23,2.24-1.17,3.18-1.97c6.86-6.33,10.3-8.24,20.14-7.43c-3.13-1.95-7.85-1.51-11.43-0.33
				c0.78-9.4,6.06-17.47,10-25.78c0.55-1.3,1.14-3.02,0.07-4.24c-1.16-1.41-1.45-3.04-1.71-4.73c-0.54-3.42,0.77-6.81,3.16-9.41
				c0.25-0.45,0.92,0.4,1.21-0.02c-0.21-1.52-2.1-2.8-2.79-4.25c-0.8-1.26,0.02-2.03,1.34-2.31c2.32-0.43,3.91,1.89,6.01,2.17
				c0-0.36-0.26-0.64-0.49-0.86c-0.88-0.99,3.15-1.21,3.85-1.42c5.01-0.91,9.31,0.32,13.13,3.39c0.71,0.83-0.55,2.14-0.65,3.12
				C136.31,53.67,136.2,53.96,136.48,54.07z M138.88,51.46c0.26,1.36-0.68,2.9-0.45,4.16c0.85-1.04,1.12-2.26,1.31-3.52
				c0.48,1.69,0.41,3.4,0.54,5.09c0.89-1,0.98-6.62-0.79-6.67C138.96,50.59,138.87,51.03,138.88,51.46z M143.41,91.03
				c0.03-0.19-0.19-0.38-0.36-0.14c-1.21,2.04-3.22,3.35-5.04,4.83c-1.5,2.28-1.04,5.25-3.37,7.05c-0.95,0.78-2.3,0.59-2.7-0.42
				c-1.02-4.05-1.05-9.74,2.62-12.55c0.21-0.12,0.34-0.32,0.12-0.54c-3.85-0.69-4.97,8.08-4.44,10.67
				c-0.42,4.87,4.33,6.03,6.65,2.12c0.86-1.5,1.25-3.15,1.59-4.81c0.11-0.51-0.06-1.17,0.74-1.45
				C141.32,94.9,143.17,93.25,143.41,91.03z M134.92,67.65c1.04-0.19,1.14-1.47,0.27-1.97c-0.92-0.63-2-0.55-3.06-0.68
				c-1,0-5.9,0.61-3.45,2.12C130.67,68.24,132.78,68.09,134.92,67.65z M134.07,62.62c0.21,0.06,0.47,0.33,0.65,0.03
				c-0.18-1.25-2.07-1.49-3.16-1.52c-0.75,0-3.02,0.25-3,1.13c0.13,0.36,0.6,0.21,0.84,0.15C130.98,61.99,132.53,62.15,134.07,62.62
				z M131.19,111.17c0.19-4.58-6.66-11.15-11.89-11.43C124.77,102.32,128.37,105.87,131.19,111.17z"/>
			<path class="st4" d="M71.21,160.52c0.83,0.47,1.66,0.94,2.49,1.41c-0.99-0.21-1.86-0.62-2.6-1.25
				C71.13,160.63,71.17,160.58,71.21,160.52z"/>
			<path class="st4" d="M72,163.24c0.5,0.28,0.09,0.52-0.13,0.08C71.92,163.29,71.95,163.27,72,163.24z"/>
			<path class="st4" d="M71.04,160.41c-0.13,0.12-0.15,0.05-0.25-0.03C70.89,160.28,70.94,160.34,71.04,160.41z"/>
			<path class="st4" d="M68.2,159.23c1.49,1.06,2.54,2.68,3.8,4c-0.05,0.03-0.08,0.05-0.13,0.08
				C70.26,162.45,68.93,160.97,68.2,159.23z"/>
			<path class="st4" d="M65.63,157.02c0.78,2.07,1.73,3.9,3.12,5.67C67.39,162.22,65.07,158.42,65.63,157.02z"/>
			<path class="st4" d="M64.71,160.92c-0.08-0.1-0.15-0.12-0.03-0.23C64.75,160.79,64.82,160.84,64.71,160.92z"/>
			<path class="st4" d="M64.29,157.13c0.31,1.64,0.92,3.12,1.84,4.57C64.63,160.98,63.49,158.16,64.29,157.13z"/>
			<path class="st4" d="M62.75,152.12c0,3.11,0.01,5.86,1.88,8.6C62.27,159.35,61.3,154.41,62.75,152.12z"/>
			<path class="st4" d="M71.1,160.68c0.74,0.63,1.61,1.04,2.6,1.25c-0.83-0.47-1.66-0.94-2.49-1.41
				C71.17,160.58,71.13,160.63,71.1,160.68z M71.04,160.41c-0.1-0.07-0.15-0.12-0.25-0.03C70.9,160.46,70.92,160.52,71.04,160.41z
				 M68.2,159.23c0.73,1.74,2.06,3.21,3.67,4.08c0.22,0.44,0.63,0.2,0.13-0.08C70.73,161.91,69.69,160.29,68.2,159.23z
				 M64.63,160.72c-1.87-2.73-1.88-5.49-1.88-8.6C61.3,154.41,62.27,159.35,64.63,160.72z M64.68,160.69
				c-0.13,0.12-0.05,0.13,0.03,0.23C64.82,160.84,64.75,160.79,64.68,160.69z M65.63,157.02c-0.56,1.4,1.75,5.2,3.12,5.67
				C67.36,160.92,66.42,159.09,65.63,157.02z M75.34,166.58c-11.23-0.04-19.16-8.85-12.56-19.25c6.77-12.15,21.15-12.11,32.5-17.25
				c1.27-0.71,1.24-0.95,2.34,0.1c0.97,0.89,1.95,1.78,2.91,2.67c0.59,0.54,0.61,0.6-0.15,0.83c-4.76,1.87-9.33,4.13-14.06,6.08
				c-4.25,1.66-14.39,7.15-7.12,11.54c3.23,1.68,7.47,1.28,10.1,3.95c2.72,2.44-0.43,5.52-2.25,7.5
				C83.91,165.59,79.68,166.46,75.34,166.58z M66.13,161.7c-0.92-1.45-1.53-2.94-1.84-4.57C63.49,158.16,64.63,160.98,66.13,161.7z"
				/>
			<path class="st4" d="M62.78,147.34c-6.59,10.39,1.34,19.2,12.56,19.25c4.34-0.12,8.56-1,11.71-3.84c1.82-1.98,4.96-5.06,2.25-7.5
				c-2.63-2.67-6.87-2.27-10.1-3.95c-7.27-4.39,2.87-9.89,7.12-11.54c4.73-1.95,9.29-4.21,14.06-6.08c0.76-0.23,0.75-0.28,0.15-0.83
				c-0.96-0.89-1.94-1.78-2.91-2.67c-1.1-1.05-1.06-0.81-2.34-0.1C83.93,135.23,69.55,135.19,62.78,147.34z M100.82,87.79
				c-0.76,1.58-3.96,7.76-2.84,8.85c1.47,0.45,2.86-0.44,4.2-0.85c0.15-0.04,0.2-0.2,0.23-0.36c0.81-4.08,1.73-7.96,3.64-11.76
				C103.66,84.57,101.48,85.18,100.82,87.79z M138.98,48.59c-0.6,1.38-0.57,5.39-2.5,5.48c-0.28-0.11-0.17-0.4-0.1-0.61
				c0.09-0.99,1.35-2.3,0.65-3.12c-3.82-3.07-8.12-4.3-13.13-3.39c-0.71,0.21-4.74,0.44-3.85,1.42c0.23,0.22,0.49,0.5,0.49,0.86
				c-2.1-0.28-3.69-2.6-6.01-2.17c-1.32,0.28-2.14,1.05-1.34,2.31c0.69,1.45,2.58,2.73,2.79,4.25c-0.29,0.42-0.95-0.44-1.21,0.02
				c-2.39,2.6-3.7,5.99-3.16,9.41c0.25,1.69,0.55,3.32,1.71,4.73c1.06,1.22,0.48,2.94-0.07,4.24c-3.94,8.31-9.22,16.38-10,25.78
				c3.58-1.18,8.3-1.62,11.43,0.33c-9.84-0.81-13.28,1.1-20.14,7.43c-0.95,0.79-1.67,1.74-3.18,1.97
				c-5.06,1.24-7.92,6.34-9.76,10.72c-0.12,0.24-0.25,0.41-0.56,0.36c-3.16-0.69-6.32-1.38-9.32,0.22
				c-4.86,4.01,13.44,2.39,15.09,3.19c0.48,0.14,0.7-0.04,0.92-0.31c1.08-1.22,1.69-2.62,3.21-3.5c-0.22,0.75,0.49,0.68,0.82,1.15
				c4.45,8.87,11.82,15.16,20.54,19.96c1.12,0.67,1.11,0.67,1.48-0.52c1.04-2.32,2.39-4.84,4.94-6.04c0.5-0.26,0.83,0.1,0.44,0.47
				c-4.25,3.86-5.21,9.03-4.6,14.34c-0.02,1.31-1.35,1.9-1.84,2.99c-1.51,2.66-7.03,9.84,0.17,7.76c4.92-1.98,6.13-7.28,10.47-9.85
				c4.53-2.19,9.06-4.42,13.59-6.59c19.51-7.64,25.66-28.7,21.14-47.77c-0.87-5.32-3.39-10.21-6.64-14.65
				c-2.52-3.84-6.37-7.42-6.99-12.12c0.54-3.71,1.21-7.44-0.38-11.07c-0.43,1-0.59,2.01-1.64,2.63c0.45-2.4,0.47-4.77-0.28-7.1
				C141.9,50.88,140.34,46.64,138.98,48.59z M114.14,53.02c0.28-0.18,0.16-0.29-0.04-0.5c-5.07-4.18-1.2-8.77,4.06-5.67
				c0.46,0.28,0.85,0.36,1.43,0.04c5.36-2.22,12.9-2.31,17.18,1.92c0.62,0.84,0.87,0.57,0.99-0.28c0.29-1.7,2.42-2.2,3.69-0.79
				c1.38,1.49,1.82,3.31,2.25,5.13c0.42,0.77-0.12,2.87,0.97,2.84c0.1-0.01,0.24,0.2,0.3,0.34c4.52,10.83-4.45,7.58,5.15,19.51
				c8.14,10.5,9.25,15.01,10.46,27.66c0.56,5.88,0.35,11.87-2.03,17.42c-1.89,4.68-4,9.39-7.63,13.19
				c-7.49,7.31-18.03,11.55-27.77,15.44c-2.92,2.71-4.68,6.66-8.06,8.92c-1.58,1.85-6.19,2.55-7.14-0.16
				c-0.21-1.72,0.77-3.62,1.73-4.99c1.04-2,2.33-3.74,3.91-5.29c0.34-0.27,0.34-0.53,0.17-0.91c-0.63-1.46-0.95-2.96-0.62-4.54
				c-0.01-0.42,0.25-1.35-0.23-1.54c-3.95-1.3-7.16-3.9-10.41-6.31c-0.31-0.27-0.57-0.38-1.07-0.12c-2.04,1.01-4.45,1.24-6.38,2.53
				c-4.66,2.46-9.72,4.4-14.16,7.22c-1.22,0.89-2.5,1.82-2.83,3.4c-0.49,4.2,8.3,3.55,10.86,5.94c3.09,1.94,3.16,5.52,0.86,8.09
				c-13.65,16.06-45.38-0.35-23.26-20.72c7.79-7.78,19.72-7.21,29-12.08c0.24-0.14,0.35-0.27,0.11-0.61c-2.1-2.69-3.36-5.78-5-8.69
				c-1.05,1.21-1.62,3.06-3.57,3.12c-2.56,0.21-21.27,1.58-16.73-4c3.25-2.36,7-2.31,10.57-0.59c0.68-5.51,5.57-11.29,11.36-11.6
				c2.71-2.79,5.65-5.86,9.29-7.8c0.47-0.31,0.79-1.06,0.65-1.56c-0.08-0.3-0.29-0.19-0.42-0.1c-0.82,0.59-1.82,0.75-2.79,0.95
				c-1.9,0.15-3.26-1.13-2.25-2.85c1.23-3.78,2.57-10.29,6.89-11.46c1.28-0.61,3.2-0.72,3.52-2.34c1.19-2.6,2.65-5.07,4-7.6
				c0.86-1.74,2.26-3.59,1.69-5.58C108.46,64.12,109.42,56.6,114.14,53.02z"/>
		</g>
		<g>
			<path class="st5" d="M90.68,119.41c-1.05,1.21-1.62,3.06-3.57,3.12c-2.56,0.21-21.27,1.58-16.73-4c3.25-2.36,7-2.31,10.57-0.59
				c0.68-5.51,5.57-11.29,11.36-11.6c2.71-2.79,5.65-5.86,9.29-7.8c0.47-0.31,0.79-1.06,0.65-1.56c-0.08-0.3-0.29-0.19-0.42-0.1
				c-0.82,0.59-1.82,0.75-2.79,0.95c-1.9,0.15-3.26-1.13-2.25-2.85c1.23-3.78,2.57-10.29,6.89-11.46c1.28-0.61,3.2-0.72,3.52-2.34
				c1.19-2.6,2.65-5.07,4-7.6c0.86-1.74,2.26-3.59,1.69-5.58c-4.45-3.91-3.49-11.43,1.23-15.01c0.28-0.18,0.16-0.29-0.04-0.5
				c-5.07-4.18-1.2-8.77,4.06-5.67c0.46,0.28,0.85,0.36,1.43,0.04c5.36-2.22,12.9-2.31,17.18,1.92c0.62,0.84,0.87,0.57,0.99-0.28
				c0.29-1.7,2.42-2.2,3.69-0.79c1.38,1.49,1.82,3.31,2.25,5.13c0.42,0.77-0.12,2.87,0.97,2.84c0.1-0.01,0.24,0.2,0.3,0.34
				c4.52,10.83-4.45,7.58,5.15,19.51c8.14,10.5,9.25,15.01,10.46,27.66c0.56,5.88,0.35,11.87-2.03,17.42
				c-1.89,4.68-4,9.39-7.63,13.19c-7.49,7.31-18.03,11.55-27.77,15.44c-2.92,2.71-4.68,6.66-8.06,8.92
				c-1.58,1.85-6.19,2.55-7.14-0.16c-0.21-1.72,0.77-3.62,1.73-4.99c1.04-2,2.33-3.74,3.91-5.29c0.34-0.27,0.34-0.53,0.17-0.91
				c-0.63-1.46-0.95-2.96-0.62-4.54c-0.01-0.42,0.25-1.35-0.23-1.54c-3.95-1.3-7.16-3.9-10.41-6.31c-0.31-0.27-0.57-0.38-1.07-0.12
				c-2.04,1.01-4.45,1.24-6.38,2.53c-4.66,2.46-9.72,4.4-14.16,7.22c-1.22,0.89-2.5,1.82-2.83,3.4c-0.49,4.2,8.3,3.55,10.86,5.94
				c3.09,1.94,3.16,5.52,0.86,8.09c-13.65,16.06-45.38-0.35-23.26-20.72c7.79-7.78,19.72-7.21,29-12.08
				c0.24-0.14,0.35-0.27,0.11-0.61C93.58,125.42,92.32,122.33,90.68,119.41z"/>
			<path class="st5" d="M90.93,118.21c-0.22,0.75,0.49,0.68,0.82,1.15c4.45,8.87,11.82,15.16,20.54,19.96
				c1.12,0.67,1.11,0.67,1.48-0.52c1.04-2.32,2.39-4.84,4.94-6.04c0.5-0.26,0.83,0.1,0.44,0.47c-4.25,3.86-5.21,9.03-4.6,14.34
				c-0.02,1.31-1.35,1.9-1.84,2.99c-1.51,2.66-7.03,9.84,0.17,7.76c4.92-1.98,6.13-7.28,10.47-9.85c4.53-2.19,9.06-4.42,13.59-6.59
				c19.51-7.64,25.66-28.7,21.14-47.77c-0.87-5.32-3.39-10.21-6.64-14.65c-2.52-3.84-6.37-7.42-6.99-12.12
				c0.54-3.71,1.21-7.44-0.38-11.07c-0.43,1-0.59,2.01-1.64,2.63c0.45-2.4,0.47-4.77-0.28-7.1c-0.25-0.92-1.81-5.16-3.16-3.21
				c-0.6,1.38-0.57,5.39-2.5,5.48c-0.28-0.11-0.17-0.4-0.1-0.61c0.09-0.99,1.35-2.3,0.65-3.12c-3.82-3.07-8.12-4.3-13.13-3.39
				c-0.71,0.21-4.74,0.44-3.85,1.42c0.23,0.22,0.49,0.5,0.49,0.86c-2.1-0.28-3.69-2.6-6.01-2.17c-1.32,0.28-2.14,1.05-1.34,2.31
				c0.69,1.45,2.58,2.73,2.79,4.25c-0.29,0.42-0.95-0.44-1.21,0.02c-2.39,2.6-3.7,5.99-3.16,9.41c0.25,1.69,0.55,3.32,1.71,4.73
				c1.06,1.22,0.48,2.94-0.07,4.24c-3.94,8.31-9.22,16.38-10,25.78c3.58-1.18,8.3-1.62,11.43,0.33c-9.84-0.81-13.28,1.1-20.14,7.43
				c-0.95,0.79-1.67,1.74-3.18,1.97c-5.06,1.24-7.92,6.34-9.76,10.72c-0.12,0.24-0.25,0.41-0.56,0.36
				c-3.16-0.69-6.32-1.38-9.32,0.22c-4.86,4.01,13.44,2.39,15.09,3.19c0.48,0.14,0.7-0.04,0.92-0.31
				C88.8,120.49,89.41,119.09,90.93,118.21z"/>
			<path class="st5" d="M75.34,166.58c4.34-0.12,8.56-1,11.71-3.84c1.82-1.98,4.96-5.06,2.25-7.5c-2.63-2.67-6.87-2.27-10.1-3.95
				c-7.27-4.39,2.87-9.89,7.12-11.54c4.73-1.95,9.29-4.21,14.06-6.08c0.76-0.23,0.75-0.28,0.15-0.83c-0.96-0.89-1.94-1.78-2.91-2.67
				c-1.1-1.05-1.06-0.81-2.34-0.1c-11.36,5.14-25.73,5.11-32.5,17.25C56.19,157.73,64.12,166.54,75.34,166.58z"/>
			<path class="st5" d="M106.05,83.65c-2.38,0.93-4.56,1.53-5.23,4.14c-0.76,1.58-3.96,7.76-2.84,8.85c1.47,0.45,2.86-0.44,4.2-0.85
				c0.15-0.04,0.2-0.2,0.23-0.36C103.22,91.34,104.14,87.46,106.05,83.65z"/>
			<path class="st5" d="M130.24,99.92c-0.54-2.59,0.58-11.35,4.44-10.67c0.22,0.22,0.09,0.42-0.12,0.54
				c-3.66,2.8-3.64,8.5-2.62,12.55c0.4,1.01,1.75,1.2,2.7,0.42c2.34-1.8,1.87-4.77,3.37-7.05c1.82-1.49,3.83-2.79,5.04-4.83
				c0.17-0.24,0.39-0.04,0.36,0.14c-0.25,2.22-2.09,3.87-4.19,4.76c-0.8,0.28-0.63,0.94-0.74,1.45c-0.35,1.66-0.73,3.3-1.59,4.81
				C134.57,105.96,129.82,104.79,130.24,99.92z"/>
			<path class="st5" d="M131.19,111.17c-2.82-5.3-6.43-8.85-11.89-11.43C124.54,100.02,131.38,106.59,131.19,111.17z"/>
			<path class="st5" d="M132.13,65.01c1.06,0.12,2.15,0.04,3.06,0.68c0.86,0.5,0.76,1.78-0.27,1.97c-2.15,0.44-4.25,0.59-6.24-0.53
				C126.23,65.62,131.13,65.01,132.13,65.01z"/>
			<path class="st5" d="M132.4,66.98c0.49-0.04,1.75,0.13,2.2-0.33c0.06-0.31-0.32-0.38-0.52-0.42c-1.58-0.26-3.16-0.25-4.73,0.07
				C127.7,66.73,131.82,67.11,132.4,66.98z"/>
			<path class="st5" d="M123.57,69.99c1.51-0.22,1.86,0.73,0.25,0.89c-0.55,0.07-3.41,0.29-2.43-0.8c-0.15-0.7-0.16-1.62-0.78-2.22
				c-2.78-2.93,0.85-2.56,2.88-1.89c0.42,0.13,0.77,0.42,0.75,0.82c0.11,1.1-2.6,1.05-2.15,1.96
				C122.57,69.74,122.28,70.12,123.57,69.99z"/>
			<path class="st5" d="M120.59,66.33c0.82,1.61,0.89,1.72,2.29,0.46C122.11,66.63,121.4,66.49,120.59,66.33z"/>
			<path class="st5" d="M117.74,64.93c0.07,2.26-3.82,0.24-4.45-0.76c-0.89-0.97,0.06-2.04,1.24-1.83
				C115.93,62.58,117.42,63.58,117.74,64.93z"/>
			<path class="st5" d="M114.56,63.21c-1.95,0.11,1.55,2,2.13,1.78C117.04,64.1,115.46,63.24,114.56,63.21z"/>
			<path class="st5" d="M139.74,52.1c-0.19,1.25-0.45,2.47-1.31,3.52c-0.23-1.25,0.72-2.79,0.45-4.16c-0.02-0.44,0.07-0.87,0.6-0.94
				c1.77,0.05,1.68,5.68,0.79,6.67C140.15,55.5,140.22,53.79,139.74,52.1z"/>
			<path class="st5" d="M131.55,61.13c1.09,0.04,2.98,0.28,3.16,1.52c-0.17,0.3-0.44,0.04-0.65-0.03c-1.54-0.47-3.08-0.63-4.68-0.21
				c-0.24,0.06-0.71,0.21-0.84-0.15C128.53,61.37,130.79,61.13,131.55,61.13z"/>
			<path class="st5" d="M99.01,106.1c-1.68,3.31-3.09,7-2.44,10.69c-1.66-3.35-0.05-8.07,2.35-10.79
				C98.95,106.03,98.98,106.06,99.01,106.1z"/>
			<path class="st5" d="M116.09,50.65c-1.45,0.08-3.11-2.41-1.31-2.52c1.32,0.27,3.32,1.23,3.22,2.62c-0.25,0.23-0.36-0.09-0.48-0.2
				c-0.77-0.66-1.49-1.46-2.63-1.57C115.3,49.56,115.67,50.07,116.09,50.65z"/>
			<path class="st5" d="M118.97,128.39c-2.72,1.89-6.31,1.92-9.55,1.78c3.05-0.58,6.64-0.99,9.75-1.9L118.97,128.39z"/>
			<path class="st5" d="M116.19,58.91c0.79,0,1.7,0.55,2.03,1.15c0.17,0.31,0.07,0.57-0.12,0.76c-0.76,0.2-1.49-1.12-2.54-0.86
				c-0.36,0.1-0.34-0.76-0.05-0.86C115.73,58.97,115.96,58.86,116.19,58.91z"/>
			<path class="st5" d="M129.38,49.68c-0.08,0.44,0.47,0.63,0.48,0.95"/>
			<path class="st5" d="M129.38,49.68c-0.04-0.61-0.87-0.61-1.01-1.12c1.21-0.16,3.15,2.02,3.1,3.52
				C130.8,51.27,130.21,50.38,129.38,49.68z"/>
			<path class="st5" d="M129.8,50.7c-0.74-0.28-1.09-0.92-1.71-1.36c0.58-0.25,0.81,0.33,1.29,0.34"/>
			<path class="st5" d="M97.85,111.46c-0.26,1.69-0.53,3.31-0.78,4.96C96.42,115.4,96.92,112.19,97.85,111.46z"/>
			<path class="st5" d="M113.99,129.01c-2.35,0.56-4.74,0.47-7.32,0.24C109.23,128.8,111.62,129.23,113.99,129.01z"/>
			<path class="st5" d="M98.12,118.03c-0.41-1.62-0.35-3.19,0.63-4.69C98.54,114.91,98.33,116.47,98.12,118.03z"/>
			<path class="st5" d="M114.96,127.62c-1.7,1.03-3.58,0.71-5.42,0.69C111.34,127.95,113.19,127.96,114.96,127.62z"/>
			<path class="st5" d="M99.84,115.49c0.05,1.52-0.35,2.79-0.62,4.08C99.1,118.24,99.05,116.9,99.84,115.49z"/>
			<path class="st5" d="M131.39,48.68c1.23,0.53,1.67,1.52,1.85,2.67C132.63,50.46,132.01,49.57,131.39,48.68z"/>
			<path class="st5" d="M114.66,130.89c1.28-0.5,2.55-0.99,3.83-1.48c-1.11,0.84-2.38,1.33-3.75,1.64
				C114.72,131,114.69,130.95,114.66,130.89z"/>
			<path class="st5" d="M131.76,50.77c-0.61-0.51-0.98-1.14-1.13-1.9C131.19,49.4,131.65,49.98,131.76,50.77z"/>
			<path class="st5" d="M129.87,50.63c0.1,0.16-0.05,0.24-0.06,0.07C129.82,50.68,129.85,50.65,129.87,50.63z"/>
			<path class="st5" d="M64.63,160.72c-2.36-1.37-3.34-6.31-1.88-8.6C62.75,155.23,62.76,157.99,64.63,160.72z"/>
			<path class="st5" d="M65.63,157.02c0.78,2.07,1.73,3.9,3.12,5.67C67.39,162.22,65.07,158.42,65.63,157.02z"/>
			<path class="st5" d="M71.87,163.32c-1.61-0.87-2.95-2.35-3.67-4.08c1.49,1.06,2.54,2.68,3.8,4"/>
			<path class="st5" d="M64.29,157.13c0.31,1.64,0.92,3.12,1.84,4.57C64.63,160.98,63.49,158.16,64.29,157.13z"/>
			<path class="st5" d="M71.21,160.52c0.83,0.47,1.66,0.94,2.49,1.41c-0.99-0.21-1.86-0.62-2.6-1.25
				C71.13,160.63,71.17,160.58,71.21,160.52z"/>
			<path class="st5" d="M72,163.24c0.5,0.28,0.09,0.52-0.13,0.08C71.92,163.29,71.95,163.27,72,163.24z"/>
			<path class="st5" d="M71.04,160.41c-0.13,0.12-0.15,0.05-0.25-0.03C70.89,160.28,70.94,160.34,71.04,160.41z"/>
			<path class="st5" d="M64.68,160.69c0.07,0.1,0.14,0.14,0.03,0.23C64.63,160.83,64.55,160.81,64.68,160.69z"/>
		</g>
	</g>
</g>
<g>
	<g id="XMLID_00000033350452821066610080000014812744270431346104_">
		<g>
			<path class="st6" d="M116.78,64.84c0.83,1.62,0.89,1.72,2.29,0.46C118.31,65.16,117.6,65.01,116.78,64.84z M116.79,66.38
				c-2.77-2.93,0.86-2.56,2.89-1.89c0.42,0.13,0.76,0.41,0.75,0.82c0.1,1.1-2.6,1.04-2.15,1.95c0.48,1,0.19,1.38,1.46,1.25
				c1.52-0.23,1.86,0.72,0.25,0.88c-0.55,0.07-3.42,0.29-2.43-0.79C117.43,67.9,117.42,66.97,116.79,66.38z"/>
			<path class="st7" d="M119.08,65.31c-1.4,1.25-1.46,1.16-2.29-0.46C117.6,65.01,118.31,65.16,119.08,65.31z"/>
			<path class="st6" d="M127.59,47.19c1.24,0.53,1.68,1.52,1.85,2.68C128.82,48.98,128.2,48.08,127.59,47.19z"/>
			<path class="st6" d="M92.77,115.3c-1.66-3.35-0.05-8.07,2.34-10.79c0.04,0.04,0.06,0.08,0.1,0.12
				C93.52,107.92,92.12,111.62,92.77,115.3z"/>
			<path class="st6" d="M115.36,126.8l-0.2,0.12c-2.71,1.89-6.31,1.91-9.54,1.77C108.66,128.12,112.25,127.7,115.36,126.8z"/>
			<path class="st6" d="M134.62,54.14c-0.23-1.25,0.72-2.79,0.46-4.16c-0.02-0.43,0.07-0.87,0.59-0.93
				c1.78,0.05,1.69,5.68,0.79,6.67c-0.12-1.7-0.05-3.41-0.54-5.09C135.74,51.87,135.49,53.09,134.62,54.14z"/>
			<path class="st6" d="M113.93,63.45c0.07,2.25-3.81,0.24-4.45-0.76c-0.9-0.98,0.06-2.04,1.23-1.83
				C112.12,61.09,113.62,62.1,113.93,63.45z M110.76,61.73c-1.95,0.1,1.55,1.99,2.12,1.78C113.24,62.61,111.66,61.76,110.76,61.73z"
				/>
			<path class="st6" d="M94.18,95.15c1.47,0.45,2.86-0.44,4.2-0.85c0.15-0.04,0.19-0.2,0.23-0.36c0.81-4.08,1.72-7.96,3.63-11.76
				c-2.38,0.93-4.55,1.52-5.23,4.13C96.26,87.88,93.06,94.06,94.18,95.15z M82.52,138.28c4.72-1.96,9.29-4.22,14.05-6.08
				c0.76-0.24,0.75-0.29,0.16-0.83c-0.97-0.89-1.95-1.78-2.91-2.67c-1.1-1.06-1.07-0.82-2.34-0.11
				c-11.36,5.14-25.73,5.11-32.5,17.26c-6.59,10.38,1.33,19.19,12.56,19.24c4.33-0.12,8.56-0.99,11.7-3.84
				c1.83-1.98,4.97-5.06,2.25-7.49c-2.64-2.67-6.87-2.28-10.11-3.95C68.13,145.43,78.26,139.92,82.52,138.28z M109.45,70.54
				c-3.94,8.3-9.22,16.38-10.01,25.78c3.59-1.19,8.3-1.62,11.43,0.33c-9.84-0.82-13.27,1.1-20.13,7.42
				c-0.95,0.8-1.67,1.74-3.19,1.97c-5.05,1.25-7.91,6.35-9.76,10.72c-0.12,0.25-0.25,0.42-0.56,0.36c-3.16-0.7-6.32-1.39-9.33,0.22
				c-4.85,4.01,13.45,2.39,15.1,3.19c0.48,0.14,0.7-0.04,0.92-0.3c1.08-1.22,1.68-2.63,3.2-3.51c-0.22,0.76,0.5,0.68,0.82,1.15
				c4.45,8.88,11.83,15.16,20.55,19.97c1.11,0.66,1.11,0.67,1.48-0.52c1.04-2.33,2.39-4.84,4.94-6.05c0.49-0.25,0.83,0.11,0.43,0.48
				c-4.25,3.85-5.2,9.03-4.59,14.34c-0.02,1.31-1.35,1.9-1.84,2.98c-1.51,2.66-7.03,9.85,0.16,7.76c4.93-1.97,6.13-7.28,10.48-9.84
				c4.52-2.2,9.05-4.42,13.59-6.6c19.5-7.63,25.66-28.69,21.14-47.77c-0.87-5.32-3.4-10.2-6.64-14.65
				c-2.53-3.84-6.38-7.42-6.99-12.12c0.53-3.71,1.2-7.44-0.38-11.06c-0.43,1-0.6,2.01-1.64,2.63c0.45-2.39,0.47-4.76-0.29-7.09
				c-0.24-0.92-1.8-5.17-3.15-3.22c-0.6,1.39-0.57,5.39-2.5,5.49c-0.29-0.12-0.17-0.4-0.1-0.61c0.09-0.99,1.35-2.3,0.64-3.13
				c-3.81-3.06-8.11-4.3-13.13-3.39c-0.7,0.22-4.74,0.44-3.85,1.42c0.23,0.22,0.49,0.5,0.48,0.86c-2.09-0.28-3.68-2.6-6-2.17
				c-1.32,0.29-2.15,1.06-1.35,2.31c0.69,1.46,2.59,2.74,2.79,4.25c-0.29,0.42-0.95-0.44-1.2,0.03c-2.39,2.59-3.7,5.98-3.16,9.4
				c0.25,1.69,0.55,3.33,1.71,4.73C110.58,67.52,109.99,69.24,109.45,70.54z M141.18,54.57c4.52,10.84-4.44,7.58,5.15,19.51
				c8.15,10.49,9.26,15,10.47,27.66c0.55,5.87,0.35,11.86-2.03,17.42c-1.89,4.67-4,9.39-7.63,13.19
				c-7.49,7.31-18.04,11.55-27.77,15.43c-2.92,2.71-4.68,6.66-8.06,8.93c-1.58,1.85-6.19,2.54-7.14-0.16
				c-0.21-1.73,0.78-3.62,1.74-4.99c1.04-2,2.32-3.74,3.9-5.29c0.34-0.27,0.34-0.54,0.18-0.92c-0.63-1.46-0.95-2.95-0.62-4.54
				c-0.01-0.41,0.25-1.35-0.23-1.53c-3.95-1.3-7.16-3.9-10.41-6.32c-0.32-0.27-0.57-0.37-1.08-0.11c-2.04,1.01-4.44,1.23-6.37,2.52
				c-4.66,2.46-9.73,4.4-14.16,7.22c-1.22,0.89-2.51,1.82-2.83,3.41c-0.49,4.19,8.3,3.55,10.86,5.94c3.1,1.94,3.17,5.51,0.87,8.09
				c-13.65,16.06-45.38-0.35-23.27-20.73c7.8-7.77,19.72-7.21,29-12.07c0.25-0.14,0.35-0.28,0.11-0.61c-2.09-2.69-3.35-5.78-5-8.69
				c-1.05,1.2-1.61,3.06-3.57,3.12c-2.55,0.21-21.27,1.58-16.73-4c3.26-2.36,7.01-2.3,10.58-0.59c0.67-5.51,5.57-11.29,11.36-11.59
				c2.7-2.79,5.65-5.86,9.28-7.8c0.48-0.31,0.79-1.06,0.66-1.57c-0.08-0.3-0.3-0.19-0.42-0.1c-0.83,0.6-1.82,0.75-2.8,0.95
				c-1.9,0.16-3.26-1.12-2.24-2.84c1.23-3.79,2.56-10.29,6.89-11.47c1.28-0.6,3.2-0.72,3.51-2.34c1.2-2.59,2.66-5.06,4-7.6
				c0.86-1.74,2.27-3.58,1.7-5.57c-4.45-3.91-3.49-11.43,1.22-15.01c0.28-0.19,0.17-0.3-0.03-0.5c-5.07-4.18-1.21-8.78,4.05-5.67
				c0.47,0.28,0.85,0.35,1.43,0.04c5.37-2.22,12.91-2.32,17.18,1.92c0.63,0.84,0.88,0.57,0.99-0.28c0.29-1.7,2.42-2.21,3.7-0.8
				c1.37,1.49,1.82,3.31,2.25,5.14c0.42,0.77-0.11,2.87,0.98,2.83C140.98,54.23,141.11,54.43,141.18,54.57z"/>
			<path class="st6" d="M67.24,158.93c-0.14,0.12-0.15,0.04-0.26-0.03C67.09,158.81,67.14,158.86,67.24,158.93z"/>
			<path class="st6" d="M115.49,98.26c5.24,0.28,12.09,6.84,11.9,11.43C124.58,104.39,120.97,100.84,115.49,98.26z"/>
			<path class="st6" d="M111.17,126.14c-1.7,1.02-3.58,0.71-5.42,0.68C107.54,126.47,109.38,126.48,111.17,126.14z"/>
			<path class="st6" d="M60.88,159.22c0.07,0.09,0.13,0.14,0.02,0.22C60.83,159.34,60.74,159.32,60.88,159.22z"/>
			<path class="st6" d="M125.56,64.83c-1.66,0.42,2.46,0.81,3.05,0.68c0.48-0.04,1.75,0.13,2.2-0.34c0.05-0.31-0.33-0.38-0.53-0.41
				C128.7,64.49,127.12,64.5,125.56,64.83z M131.11,66.16c-2.14,0.45-4.25,0.6-6.24-0.53c-2.45-1.49,2.45-2.11,3.45-2.11
				c1.06,0.12,2.14,0.04,3.06,0.67C132.26,64.7,132.16,65.98,131.11,66.16z"/>
			<path class="st6" d="M94.94,111.87c-0.21,1.56-0.42,3.12-0.62,4.69C93.91,114.93,93.96,113.35,94.94,111.87z"/>
			<path class="st6" d="M60.49,155.65c0.31,1.64,0.92,3.12,1.83,4.57C60.83,159.5,59.69,156.68,60.49,155.65z"/>
			<path class="st6" d="M126.07,49.15c0.09,0.16-0.05,0.24-0.06,0.07C126.02,49.2,126.04,49.17,126.07,49.15z"/>
			<path class="st6" d="M110.87,129.41c1.27-0.49,2.55-0.98,3.83-1.48c-1.12,0.84-2.39,1.33-3.75,1.65
				C110.92,129.52,110.89,129.46,110.87,129.41z"/>
			<path class="st7" d="M67.3,159.21c0.73,0.63,1.6,1.03,2.6,1.25c-0.84-0.46-1.66-0.93-2.5-1.41
				C67.36,159.1,67.34,159.15,67.3,159.21z M60.88,159.22c-0.14,0.11-0.05,0.12,0.02,0.22C61.01,159.36,60.95,159.31,60.88,159.22z
				 M61.84,155.54c-0.57,1.4,1.75,5.19,3.11,5.66C63.55,159.44,62.62,157.61,61.84,155.54z M66.98,158.9
				c0.11,0.07,0.13,0.14,0.26,0.03C67.14,158.86,67.09,158.81,66.98,158.9z M60.83,159.24c-1.87-2.74-1.88-5.49-1.87-8.61
				C57.5,152.93,58.47,157.86,60.83,159.24z M71.55,165.1c-11.24-0.04-19.16-8.85-12.56-19.24c6.77-12.16,21.14-12.12,32.5-17.26
				c1.26-0.71,1.24-0.95,2.34,0.11c0.96,0.89,1.94,1.78,2.91,2.67c0.58,0.53,0.6,0.59-0.16,0.83c-4.75,1.86-9.33,4.12-14.05,6.08
				c-4.25,1.65-14.39,7.15-7.13,11.54c3.24,1.67,7.47,1.28,10.11,3.95c2.72,2.43-0.43,5.52-2.25,7.49
				C80.11,164.11,75.87,164.98,71.55,165.1z M62.32,160.22c-0.91-1.45-1.52-2.94-1.83-4.57C59.69,156.68,60.83,159.5,62.32,160.22z
				 M68.19,161.76c-1.26-1.33-2.3-2.95-3.8-4.01c0.74,1.74,2.07,3.22,3.68,4.09C68.28,162.28,68.69,162.05,68.19,161.76z"/>
			<path class="st7" d="M110.76,61.73c0.9,0.03,2.48,0.88,2.12,1.78C112.3,63.72,108.8,61.83,110.76,61.73z"/>
			<path class="st6" d="M67.4,159.05c0.84,0.47,1.66,0.94,2.5,1.41c-1-0.21-1.87-0.61-2.6-1.25
				C67.34,159.15,67.36,159.1,67.4,159.05z"/>
			<path class="st6" d="M64.39,157.75c1.5,1.07,2.54,2.68,3.8,4.01c-0.04,0.03-0.08,0.05-0.12,0.08
				C66.46,160.97,65.13,159.49,64.39,157.75z"/>
			<path class="st6" d="M111.7,57.6c0.23-0.11,0.45-0.23,0.69-0.17c0.79-0.01,1.7,0.54,2.03,1.15c0.17,0.31,0.06,0.56-0.13,0.76
				c-0.76,0.2-1.48-1.13-2.53-0.86C111.4,58.57,111.43,57.71,111.7,57.6z"/>
			<path class="st6" d="M111.08,47.5c0.42,0.58,0.78,1.09,1.2,1.67c-1.45,0.08-3.11-2.42-1.3-2.52c1.31,0.26,3.31,1.22,3.21,2.62
				c-0.25,0.22-0.35-0.1-0.47-0.2C112.94,48.41,112.22,47.62,111.08,47.5z"/>
			<path class="st6" d="M96.04,114.01c0.05,1.52-0.35,2.79-0.63,4.08C95.3,116.75,95.26,115.43,96.04,114.01z"/>
			<path class="st6" d="M130.27,61.14c-1.55-0.48-3.08-0.63-4.68-0.21c-0.25,0.06-0.72,0.21-0.84-0.15
				c-0.02-0.89,2.24-1.14,2.99-1.14c1.1,0.04,2.98,0.28,3.17,1.53C130.73,61.46,130.47,61.21,130.27,61.14z"/>
			<path class="st6" d="M110.18,127.54c-2.35,0.56-4.73,0.47-7.31,0.23C105.42,127.32,107.82,127.74,110.18,127.54z"/>
			<path class="st6" d="M58.95,150.64c-0.01,3.11,0,5.86,1.87,8.61C58.47,157.86,57.5,152.93,58.95,150.64z"/>
			<path class="st7" d="M97.01,86.3c0.67-2.61,2.85-3.2,5.23-4.13c-1.91,3.8-2.82,7.68-3.63,11.76c-0.04,0.16-0.07,0.32-0.23,0.36
				c-1.34,0.41-2.73,1.31-4.2,0.85C93.06,94.06,96.26,87.88,97.01,86.3z"/>
			<path class="st6" d="M126,49.22c-0.74-0.27-1.1-0.92-1.71-1.36c0.57-0.24,0.81,0.34,1.29,0.35c-0.08,0.43,0.46,0.63,0.48,0.94
				C126.04,49.17,126.02,49.2,126,49.22z"/>
			<path class="st6" d="M125.59,48.2c-0.04-0.61-0.87-0.61-1.01-1.13c1.21-0.15,3.15,2.02,3.1,3.52
				C127,49.8,126.41,48.89,125.59,48.2z"/>
			<path class="st6" d="M135.41,94.3c-0.79,0.28-0.63,0.95-0.73,1.46c-0.35,1.66-0.74,3.29-1.59,4.8c-2.33,3.92-7.08,2.75-6.66-2.11
				c-0.54-2.59,0.57-11.36,4.43-10.67c0.22,0.22,0.09,0.42-0.12,0.54c-3.66,2.79-3.64,8.49-2.61,12.55c0.4,1.01,1.75,1.2,2.7,0.42
				c2.34-1.81,1.87-4.77,3.36-7.06c1.82-1.49,3.83-2.79,5.05-4.83c0.17-0.23,0.38-0.04,0.36,0.15
				C139.37,91.76,137.52,93.41,135.41,94.3z"/>
			<path class="st6" d="M61.84,155.54c0.78,2.07,1.72,3.9,3.11,5.66C63.58,160.73,61.26,156.94,61.84,155.54z"/>
			<path class="st7" d="M111.7,57.6c-0.27,0.11-0.3,0.97,0.06,0.87c1.05-0.27,1.76,1.07,2.53,0.86c0.19-0.2,0.3-0.44,0.13-0.76
				c-0.33-0.61-1.24-1.16-2.03-1.15C112.15,57.37,111.93,57.49,111.7,57.6z M114.69,127.93c-1.28,0.5-2.55,0.99-3.83,1.48
				c0.03,0.05,0.05,0.12,0.07,0.17C112.3,129.26,113.58,128.76,114.69,127.93z M110.71,60.86c-1.16-0.2-2.13,0.85-1.23,1.83
				c0.64,1,4.52,3.01,4.45,0.76C113.62,62.1,112.12,61.09,110.71,60.86z M102.87,127.77c2.58,0.24,4.96,0.33,7.31-0.23
				C107.82,127.74,105.42,127.32,102.87,127.77z M127.59,47.19c0.62,0.89,1.24,1.79,1.85,2.68
				C129.27,48.71,128.82,47.72,127.59,47.19z M96.04,114.01c-0.78,1.41-0.74,2.74-0.63,4.08C95.69,116.8,96.08,115.53,96.04,114.01z
				 M119.68,64.5c-2.03-0.68-5.66-1.04-2.89,1.89c0.63,0.59,0.64,1.51,0.79,2.22c-0.99,1.09,1.87,0.86,2.43,0.79
				c1.61-0.16,1.26-1.11-0.25-0.88c-1.27,0.13-0.98-0.25-1.46-1.25c-0.45-0.91,2.25-0.85,2.15-1.95
				C120.45,64.91,120.1,64.63,119.68,64.5z M105.75,126.82c1.84,0.04,3.72,0.35,5.42-0.68
				C109.38,126.48,107.54,126.47,105.75,126.82z M94.32,116.56c0.2-1.57,0.41-3.13,0.62-4.69
				C93.96,113.35,93.91,114.93,94.32,116.56z M105.62,128.68c3.23,0.14,6.83,0.12,9.54-1.77l0.2-0.12
				C112.25,127.7,108.66,128.12,105.62,128.68z M92.77,115.3c-0.65-3.68,0.75-7.38,2.44-10.68c-0.04-0.04-0.06-0.07-0.1-0.12
				C92.72,107.23,91.11,111.95,92.77,115.3z M93.26,114.94c0.26-1.66,0.52-3.27,0.79-4.97C93.12,110.7,92.61,113.91,93.26,114.94z
				 M127.68,50.6c0.05-1.5-1.89-3.68-3.1-3.52c0.14,0.52,0.97,0.53,1.01,1.13c-0.48-0.01-0.72-0.59-1.29-0.35
				c0.61,0.44,0.97,1.09,1.71,1.36c0.02,0.17,0.15,0.09,0.06-0.07c-0.02-0.31-0.56-0.52-0.48-0.94
				C126.41,48.89,127,49.8,127.68,50.6z M132.69,52.59c1.93-0.1,1.9-4.1,2.5-5.49c1.35-1.95,2.92,2.3,3.15,3.22
				c0.76,2.33,0.75,4.7,0.29,7.09c1.04-0.61,1.21-1.63,1.64-2.63c1.58,3.62,0.91,7.35,0.38,11.06c0.61,4.7,4.46,8.28,6.99,12.12
				c3.24,4.45,5.76,9.33,6.64,14.65c4.52,19.08-1.64,40.14-21.14,47.77c-4.55,2.18-9.07,4.4-13.59,6.6
				c-4.35,2.56-5.55,7.88-10.48,9.84c-7.19,2.09-1.67-5.1-0.16-7.76c0.48-1.09,1.82-1.67,1.84-2.98c-0.61-5.3,0.35-10.48,4.59-14.34
				c0.4-0.37,0.06-0.73-0.43-0.48c-2.55,1.21-3.9,3.72-4.94,6.05c-0.37,1.18-0.37,1.17-1.48,0.52
				c-8.72-4.81-16.09-11.09-20.55-19.97c-0.32-0.47-1.04-0.39-0.82-1.15c-1.52,0.88-2.12,2.29-3.2,3.51
				c-0.22,0.26-0.44,0.44-0.92,0.3c-1.65-0.79-19.96,0.83-15.1-3.19c3.01-1.61,6.16-0.93,9.33-0.22c0.31,0.05,0.45-0.12,0.56-0.36
				c1.85-4.37,4.7-9.48,9.76-10.72c1.52-0.22,2.25-1.17,3.19-1.97c6.86-6.32,10.29-8.24,20.13-7.42c-3.13-1.95-7.84-1.52-11.43-0.33
				c0.79-9.4,6.07-17.48,10.01-25.78c0.55-1.3,1.14-3.02,0.07-4.24c-1.16-1.41-1.45-3.04-1.71-4.73c-0.54-3.42,0.77-6.81,3.16-9.4
				c0.25-0.46,0.91,0.39,1.2-0.03c-0.2-1.51-2.1-2.79-2.79-4.25c-0.8-1.25,0.03-2.02,1.35-2.31c2.32-0.43,3.91,1.89,6,2.17
				c0.01-0.36-0.25-0.64-0.48-0.86c-0.89-0.99,3.15-1.2,3.85-1.42c5.02-0.91,9.32,0.33,13.13,3.39c0.72,0.83-0.55,2.14-0.64,3.13
				C132.51,52.19,132.39,52.48,132.69,52.59z M126.82,47.39c0.15,0.75,0.53,1.38,1.14,1.89C127.85,48.51,127.39,47.92,126.82,47.39z
				 M135.68,49.04c-0.52,0.06-0.61,0.51-0.59,0.93c0.25,1.37-0.69,2.91-0.46,4.16c0.86-1.05,1.12-2.27,1.31-3.52
				c0.49,1.68,0.42,3.39,0.54,5.09C137.37,54.72,137.46,49.09,135.68,49.04z M113.72,49.08c0.12,0.1,0.22,0.42,0.47,0.2
				c0.1-1.4-1.9-2.36-3.21-2.62c-1.81,0.1-0.15,2.6,1.3,2.52c-0.42-0.58-0.78-1.09-1.2-1.67C112.22,47.62,112.94,48.41,113.72,49.08
				z M139.61,89.55c0.02-0.19-0.19-0.38-0.36-0.15c-1.22,2.05-3.23,3.35-5.05,4.83c-1.49,2.29-1.03,5.25-3.36,7.06
				c-0.95,0.78-2.3,0.59-2.7-0.42c-1.03-4.06-1.05-9.75,2.61-12.55c0.21-0.12,0.34-0.32,0.12-0.54c-3.85-0.69-4.96,8.08-4.43,10.67
				c-0.43,4.86,4.33,6.02,6.66,2.11c0.85-1.5,1.25-3.14,1.59-4.8c0.1-0.51-0.06-1.18,0.73-1.46
				C137.52,93.41,139.37,91.76,139.61,89.55z M131.11,66.16c1.05-0.19,1.15-1.46,0.28-1.97c-0.93-0.62-2-0.54-3.06-0.67
				c-1.01,0-5.9,0.61-3.45,2.11C126.86,66.76,128.98,66.62,131.11,66.16z M130.27,61.14c0.2,0.06,0.46,0.32,0.65,0.03
				c-0.19-1.25-2.07-1.49-3.17-1.53c-0.75,0-3.01,0.25-2.99,1.14c0.12,0.36,0.59,0.21,0.84,0.15
				C127.19,60.51,128.72,60.66,130.27,61.14z M127.39,109.69c0.19-4.58-6.66-11.15-11.9-11.43
				C120.97,100.84,124.58,104.39,127.39,109.69z"/>
			<path class="st6" d="M68.19,161.76c0.5,0.28,0.09,0.52-0.12,0.08C68.11,161.81,68.15,161.79,68.19,161.76z"/>
			<path class="st6" d="M94.06,109.97c-0.27,1.7-0.53,3.31-0.79,4.97C92.61,113.91,93.12,110.7,94.06,109.97z"/>
			<path class="st7" d="M125.56,64.83c1.56-0.33,3.15-0.34,4.72-0.07c0.2,0.03,0.58,0.1,0.53,0.41c-0.45,0.47-1.72,0.29-2.2,0.34
				C128.02,65.64,123.89,65.25,125.56,64.83z"/>
			<path class="st6" d="M127.96,49.28c-0.61-0.51-0.99-1.14-1.14-1.89C127.39,47.92,127.85,48.51,127.96,49.28z"/>
		</g>
		<g>
			<path class="st8" d="M86.87,117.93c-1.05,1.2-1.61,3.06-3.57,3.12c-2.55,0.21-21.27,1.58-16.73-4c3.26-2.36,7.01-2.3,10.58-0.59
				c0.67-5.51,5.57-11.29,11.36-11.59c2.7-2.79,5.65-5.86,9.28-7.8c0.48-0.31,0.79-1.06,0.66-1.57c-0.08-0.3-0.3-0.19-0.42-0.1
				c-0.83,0.6-1.82,0.75-2.8,0.95c-1.9,0.16-3.26-1.12-2.24-2.84c1.23-3.79,2.56-10.29,6.89-11.47c1.28-0.6,3.2-0.72,3.51-2.34
				c1.2-2.59,2.66-5.06,4-7.6c0.86-1.74,2.27-3.58,1.7-5.57c-4.45-3.91-3.49-11.43,1.22-15.01c0.28-0.19,0.17-0.3-0.03-0.5
				c-5.07-4.18-1.21-8.78,4.05-5.67c0.47,0.28,0.85,0.35,1.43,0.04c5.37-2.22,12.91-2.32,17.18,1.92c0.63,0.84,0.88,0.57,0.99-0.28
				c0.29-1.7,2.42-2.21,3.7-0.8c1.37,1.49,1.82,3.31,2.25,5.14c0.42,0.77-0.11,2.87,0.98,2.83c0.09,0,0.23,0.2,0.29,0.34
				c4.52,10.84-4.44,7.58,5.15,19.51c8.15,10.49,9.26,15,10.47,27.66c0.55,5.87,0.35,11.86-2.03,17.42c-1.89,4.67-4,9.39-7.63,13.19
				c-7.49,7.31-18.04,11.55-27.77,15.43c-2.92,2.71-4.68,6.66-8.06,8.93c-1.58,1.85-6.19,2.54-7.14-0.16
				c-0.21-1.73,0.78-3.62,1.74-4.99c1.04-2,2.32-3.74,3.9-5.29c0.34-0.27,0.34-0.54,0.18-0.92c-0.63-1.46-0.95-2.95-0.62-4.54
				c-0.01-0.41,0.25-1.35-0.23-1.53c-3.95-1.3-7.16-3.9-10.41-6.32c-0.32-0.27-0.57-0.37-1.08-0.11c-2.04,1.01-4.44,1.23-6.37,2.52
				c-4.66,2.46-9.73,4.4-14.16,7.22c-1.22,0.89-2.51,1.82-2.83,3.41c-0.49,4.19,8.3,3.55,10.86,5.94c3.1,1.94,3.17,5.51,0.87,8.09
				c-13.65,16.06-45.38-0.35-23.27-20.73c7.8-7.77,19.72-7.21,29-12.07c0.25-0.14,0.35-0.28,0.11-0.61
				C89.78,123.94,88.52,120.85,86.87,117.93z"/>
			<path class="st8" d="M87.12,116.72c-0.22,0.76,0.5,0.68,0.82,1.15c4.45,8.88,11.83,15.16,20.55,19.97
				c1.11,0.66,1.11,0.67,1.48-0.52c1.04-2.33,2.39-4.84,4.94-6.05c0.49-0.25,0.83,0.11,0.43,0.48c-4.25,3.85-5.2,9.03-4.59,14.34
				c-0.02,1.31-1.35,1.9-1.84,2.98c-1.51,2.66-7.03,9.85,0.16,7.76c4.93-1.97,6.13-7.28,10.48-9.84c4.52-2.2,9.05-4.42,13.59-6.6
				c19.5-7.63,25.66-28.69,21.14-47.77c-0.87-5.32-3.4-10.2-6.64-14.65c-2.53-3.84-6.38-7.42-6.99-12.12
				c0.53-3.71,1.2-7.44-0.38-11.06c-0.43,1-0.6,2.01-1.64,2.63c0.45-2.39,0.47-4.76-0.29-7.09c-0.24-0.92-1.8-5.17-3.15-3.22
				c-0.6,1.39-0.57,5.39-2.5,5.49c-0.29-0.12-0.17-0.4-0.1-0.61c0.09-0.99,1.35-2.3,0.64-3.13c-3.81-3.06-8.11-4.3-13.13-3.39
				c-0.7,0.22-4.74,0.44-3.85,1.42c0.23,0.22,0.49,0.5,0.48,0.86c-2.09-0.28-3.68-2.6-6-2.17c-1.32,0.29-2.15,1.06-1.35,2.31
				c0.69,1.46,2.59,2.74,2.79,4.25c-0.29,0.42-0.95-0.44-1.2,0.03c-2.39,2.59-3.7,5.98-3.16,9.4c0.25,1.69,0.55,3.33,1.71,4.73
				c1.06,1.23,0.47,2.95-0.07,4.24c-3.94,8.3-9.22,16.38-10.01,25.78c3.59-1.19,8.3-1.62,11.43,0.33
				c-9.84-0.82-13.27,1.1-20.13,7.42c-0.95,0.8-1.67,1.74-3.19,1.97c-5.05,1.25-7.91,6.35-9.76,10.72
				c-0.12,0.25-0.25,0.42-0.56,0.36c-3.16-0.7-6.32-1.39-9.33,0.22c-4.85,4.01,13.45,2.39,15.1,3.19c0.48,0.14,0.7-0.04,0.92-0.3
				C85,119.01,85.6,117.61,87.12,116.72z"/>
			<path class="st8" d="M71.55,165.1c4.33-0.12,8.56-0.99,11.7-3.84c1.83-1.98,4.97-5.06,2.25-7.49c-2.64-2.67-6.87-2.28-10.11-3.95
				c-7.26-4.39,2.87-9.9,7.13-11.54c4.72-1.96,9.29-4.22,14.05-6.08c0.76-0.24,0.75-0.29,0.16-0.83c-0.97-0.89-1.95-1.78-2.91-2.67
				c-1.1-1.06-1.07-0.82-2.34-0.11c-11.36,5.14-25.73,5.11-32.5,17.26C52.39,156.24,60.31,165.05,71.55,165.1z"/>
			<path class="st8" d="M102.24,82.17c-2.38,0.93-4.55,1.52-5.23,4.13c-0.75,1.58-3.95,7.76-2.83,8.85c1.47,0.45,2.86-0.44,4.2-0.85
				c0.15-0.04,0.19-0.2,0.23-0.36C99.42,89.85,100.33,85.97,102.24,82.17z"/>
			<path class="st8" d="M126.44,98.45c-0.54-2.59,0.57-11.36,4.43-10.67c0.22,0.22,0.09,0.42-0.12,0.54
				c-3.66,2.79-3.64,8.49-2.61,12.55c0.4,1.01,1.75,1.2,2.7,0.42c2.34-1.81,1.87-4.77,3.36-7.06c1.82-1.49,3.83-2.79,5.05-4.83
				c0.17-0.23,0.38-0.04,0.36,0.15c-0.25,2.22-2.09,3.86-4.2,4.75c-0.79,0.28-0.63,0.95-0.73,1.46c-0.35,1.66-0.74,3.29-1.59,4.8
				C130.77,104.47,126.01,103.31,126.44,98.45z"/>
			<path class="st8" d="M127.39,109.69c-2.82-5.29-6.43-8.85-11.9-11.43C120.73,98.54,127.59,105.1,127.39,109.69z"/>
			<path class="st8" d="M128.33,63.53c1.06,0.12,2.14,0.04,3.06,0.67c0.86,0.51,0.76,1.78-0.28,1.97c-2.14,0.45-4.25,0.6-6.24-0.53
				C122.43,64.14,127.32,63.53,128.33,63.53z"/>
			<path class="st8" d="M128.6,65.5c0.48-0.04,1.75,0.13,2.2-0.34c0.05-0.31-0.33-0.38-0.53-0.41c-1.57-0.27-3.15-0.26-4.72,0.07
				C123.89,65.25,128.02,65.64,128.6,65.5z"/>
			<path class="st8" d="M119.76,68.51c1.52-0.23,1.86,0.72,0.25,0.88c-0.55,0.07-3.42,0.29-2.43-0.79c-0.15-0.7-0.16-1.63-0.79-2.22
				c-2.77-2.93,0.86-2.56,2.89-1.89c0.42,0.13,0.76,0.41,0.75,0.82c0.1,1.1-2.6,1.04-2.15,1.95
				C118.78,68.26,118.48,68.64,119.76,68.51z"/>
			<path class="st8" d="M116.78,64.84c0.83,1.62,0.89,1.72,2.29,0.46C118.31,65.16,117.6,65.01,116.78,64.84z"/>
			<path class="st8" d="M113.93,63.45c0.07,2.25-3.81,0.24-4.45-0.76c-0.9-0.98,0.06-2.04,1.23-1.83
				C112.12,61.09,113.62,62.1,113.93,63.45z"/>
			<path class="st8" d="M110.76,61.73c-1.95,0.1,1.55,1.99,2.12,1.78C113.24,62.61,111.66,61.76,110.76,61.73z"/>
			<path class="st8" d="M135.93,50.62c-0.19,1.25-0.45,2.46-1.31,3.52c-0.23-1.25,0.72-2.79,0.46-4.16
				c-0.02-0.43,0.07-0.87,0.59-0.93c1.78,0.05,1.69,5.68,0.79,6.67C136.35,54.02,136.42,52.31,135.93,50.62z"/>
			<path class="st8" d="M127.74,59.64c1.1,0.04,2.98,0.28,3.17,1.53c-0.18,0.29-0.45,0.04-0.65-0.03c-1.55-0.48-3.08-0.63-4.68-0.21
				c-0.25,0.06-0.72,0.21-0.84-0.15C124.73,59.89,126.99,59.64,127.74,59.64z"/>
			<path class="st8" d="M95.21,104.62c-1.69,3.3-3.09,6.99-2.44,10.68c-1.66-3.35-0.05-8.07,2.34-10.79
				C95.15,104.55,95.17,104.59,95.21,104.62z"/>
			<path class="st8" d="M112.28,49.17c-1.45,0.08-3.11-2.42-1.3-2.52c1.31,0.26,3.31,1.22,3.21,2.62c-0.25,0.22-0.35-0.1-0.47-0.2
				c-0.78-0.67-1.5-1.46-2.64-1.58C111.5,48.08,111.87,48.6,112.28,49.17z"/>
			<path class="st8" d="M115.16,126.91c-2.71,1.89-6.31,1.91-9.54,1.77c3.04-0.57,6.63-0.99,9.74-1.89L115.16,126.91z"/>
			<path class="st8" d="M112.39,57.43c0.79-0.01,1.7,0.54,2.03,1.15c0.17,0.31,0.06,0.56-0.13,0.76c-0.76,0.2-1.48-1.13-2.53-0.86
				c-0.36,0.1-0.34-0.77-0.06-0.87C111.93,57.49,112.15,57.37,112.39,57.43z"/>
			<path class="st8" d="M125.59,48.2c-0.08,0.43,0.46,0.63,0.48,0.94"/>
			<path class="st8" d="M125.59,48.2c-0.04-0.61-0.87-0.61-1.01-1.13c1.21-0.15,3.15,2.02,3.1,3.52
				C127,49.8,126.41,48.89,125.59,48.2z"/>
			<path class="st8" d="M126,49.22c-0.74-0.27-1.1-0.92-1.71-1.36c0.57-0.24,0.81,0.34,1.29,0.35"/>
			<path class="st8" d="M94.06,109.97c-0.27,1.7-0.53,3.31-0.79,4.97C92.61,113.91,93.12,110.7,94.06,109.97z"/>
			<path class="st8" d="M110.18,127.54c-2.35,0.56-4.73,0.47-7.31,0.23C105.42,127.32,107.82,127.74,110.18,127.54z"/>
			<path class="st8" d="M94.32,116.56c-0.41-1.63-0.36-3.2,0.62-4.69C94.73,113.42,94.52,114.99,94.32,116.56z"/>
			<path class="st8" d="M111.17,126.14c-1.7,1.02-3.58,0.71-5.42,0.68C107.54,126.47,109.38,126.48,111.17,126.14z"/>
			<path class="st8" d="M96.04,114.01c0.05,1.52-0.35,2.79-0.63,4.08C95.3,116.75,95.26,115.43,96.04,114.01z"/>
			<path class="st8" d="M127.59,47.19c1.24,0.53,1.68,1.52,1.85,2.68C128.82,48.98,128.2,48.08,127.59,47.19z"/>
			<path class="st8" d="M110.87,129.41c1.27-0.49,2.55-0.98,3.83-1.48c-1.12,0.84-2.39,1.33-3.75,1.65
				C110.92,129.52,110.89,129.46,110.87,129.41z"/>
			<path class="st8" d="M127.96,49.28c-0.61-0.51-0.99-1.14-1.14-1.89C127.39,47.92,127.85,48.51,127.96,49.28z"/>
			<path class="st8" d="M126.07,49.15c0.09,0.16-0.05,0.24-0.06,0.07C126.02,49.2,126.04,49.17,126.07,49.15z"/>
			<path class="st8" d="M60.83,159.24c-2.35-1.38-3.33-6.31-1.87-8.61C58.94,153.75,58.95,156.5,60.83,159.24z"/>
			<path class="st8" d="M61.84,155.54c0.78,2.07,1.72,3.9,3.11,5.66C63.58,160.73,61.26,156.94,61.84,155.54z"/>
			<path class="st8" d="M68.07,161.84c-1.61-0.87-2.95-2.35-3.68-4.09c1.5,1.07,2.54,2.68,3.8,4.01"/>
			<path class="st8" d="M60.49,155.65c0.31,1.64,0.92,3.12,1.83,4.57C60.83,159.5,59.69,156.68,60.49,155.65z"/>
			<path class="st8" d="M67.4,159.05c0.84,0.47,1.66,0.94,2.5,1.41c-1-0.21-1.87-0.61-2.6-1.25
				C67.34,159.15,67.36,159.1,67.4,159.05z"/>
			<path class="st8" d="M68.19,161.76c0.5,0.28,0.09,0.52-0.12,0.08C68.11,161.81,68.15,161.79,68.19,161.76z"/>
			<path class="st8" d="M67.24,158.93c-0.14,0.12-0.15,0.04-0.26-0.03C67.09,158.81,67.14,158.86,67.24,158.93z"/>
			<path class="st8" d="M60.88,159.22c0.07,0.09,0.13,0.14,0.02,0.22C60.83,159.34,60.74,159.32,60.88,159.22z"/>
		</g>
	</g>
</g>
</svg>
